
<svg xmlns="http://www.w3.org/2000/svg" version="1.1" xmlns:xlink="http://www.w3.org/1999/xlink" preserveAspectRatio="none" x="0px" y="0px" width="236px" height="180px" viewBox="0 0 236 180">
<defs>
<g id="Clade_2_0_Layer7_0_FILL">
<path fill="#FFFFFF" stroke="none" d="
M 3.65 -5.15
L 3.05 -5.55 2.3 -5.65 1.55 -5.55 0.95 -5.15 0.6 -4.55 0.45 -3.8 0.45 0.6 0.6 1.5 1.05 2.1 1.7 2.4 2.35 2.45 3.05 2.35 3.65 1.95 4.05 1.35 4.15 0.65 4.15 0.15 3 0.15 3 0.55 2.95 0.95 2.8 1.15
Q 2.65 1.3 2.55 1.3 2.35 1.35 2.3 1.35 1.95 1.35 1.75 1.1
L 1.6 0.5 1.6 -3.6 1.75 -4.25
Q 1.9 -4.55 2.3 -4.5 2.7 -4.5 2.85 -4.25
L 3 -3.7 3 -3.3 4.15 -3.3 4.15 -3.75 4.05 -4.55 3.65 -5.15 Z"/>
</g>

<g id="Clade_2_0_Layer6_0_FILL">
<path fill="#FFFFFF" stroke="none" d="
M 6.05 -5.6
L 4.9 -5.6 4.9 2.4 8.35 2.4 8.35 1.25 6.05 1.25 6.05 -5.6 Z"/>
</g>

<g id="Clade_2_0_Layer5_0_FILL">
<path fill="#FFFFFF" stroke="none" d="
M 11.2 -5.6
L 10.25 -5.6 8.45 2.4 9.6 2.4 9.95 0.7 11.5 0.7 11.85 2.4 13 2.4 11.2 -5.6
M 10.75 -3.3
L 11.3 -0.4 10.15 -0.4 10.7 -3.3 10.75 -3.3 Z"/>
</g>

<g id="Clade_2_0_Layer4_0_FILL">
<path fill="#FFFFFF" stroke="none" d="
M 15.05 -5.6
L 13.35 -5.6 13.35 2.4 14.95 2.4
Q 16 2.4 16.55 1.9 17.1 1.4 17.1 0.25
L 17.1 -3.55
Q 17.1 -4.5 16.55 -5.05 16.05 -5.55 15.05 -5.6
M 14.5 -4.5
L 15.05 -4.5
Q 15.6 -4.5 15.75 -4.25
L 15.95 -3.55 15.95 0.35 15.75 1.1
Q 15.55 1.35 15.05 1.35
L 14.5 1.35 14.5 -4.5 Z"/>
</g>

<g id="Clade_2_0_Layer3_0_FILL">
<path fill="#FFFFFF" stroke="none" d="
M 21.15 -2.15
L 19.15 -2.15 19.15 -4.5 21.45 -4.5 21.45 -5.6 18 -5.6 18 2.4 21.45 2.4 21.45 1.25 19.15 1.25 19.15 -1.1 21.15 -1.1 21.15 -2.15 Z"/>
</g>

<g id="Clade_2_0_Layer2_0_FILL">
<path fill="#FFFFFF" stroke="none" d="
M 24.85 -5.55
L 24.3 -5.15 23.95 -4.6 23.8 -3.9 23.8 -3.3 24.95 -3.3 24.95 -3.95
Q 24.95 -4.15 25.1 -4.35 25.35 -4.5 25.5 -4.5 25.65 -4.5 25.85 -4.45 26 -4.3 26 -4.25 26.05 -4.05 26.05 -3.95 26.1 -3.75 26.1 -3.65
L 26.05 -3.1 25.9 -2.55 23.8 1.35 23.8 2.4 27.25 2.4 27.25 1.25 25.15 1.25 26.85 -2
Q 26.95 -2.15 27.05 -2.4
L 27.2 -2.8 27.25 -3.65 27.15 -4.4 26.85 -5.05 26.3 -5.5 25.55 -5.65 24.85 -5.55 Z"/>
</g>

<g id="Letter1_0_Layer0_0_FILL">
<path fill="#FFFFFF" stroke="none" d="
M 0 -1.95
L 1.15 -2.8 1.15 4 2.3 4 2.3 -4 1.15 -4 0 -3.15 0 -1.95 Z"/>
</g>

<g id="Clade_1_0_Layer0_0_FILL">
<path fill="#FFFFFF" stroke="none" d="
M 4.05 -4.55
L 3.65 -5.15 3.05 -5.55 2.3 -5.65 1.55 -5.55 0.95 -5.15 0.6 -4.55 0.45 -3.8 0.45 0.6 0.6 1.5 1.05 2.1 1.7 2.4 2.35 2.45 3.05 2.35 3.65 1.95 4.05 1.35 4.15 0.65 4.15 0.15 3 0.15 3 0.55 2.95 0.95 2.8 1.15
Q 2.65 1.3 2.55 1.3 2.35 1.35 2.3 1.35 1.95 1.35 1.75 1.1
L 1.6 0.5 1.6 -3.6 1.75 -4.25
Q 1.9 -4.55 2.3 -4.5 2.7 -4.5 2.85 -4.25
L 3 -3.7 3 -3.3 4.15 -3.3 4.15 -3.75 4.05 -4.55 Z"/>
</g>

<g id="Clade_1_0_Layer0_1_FILL">
<path fill="#FFFFFF" stroke="none" d="
M 6.05 -5.6
L 4.9 -5.6 4.9 2.4 8.35 2.4 8.35 1.25 6.05 1.25 6.05 -5.6 Z"/>
</g>

<g id="Clade_1_0_Layer0_2_FILL">
<path fill="#FFFFFF" stroke="none" d="
M 11.2 -5.6
L 10.25 -5.6 8.45 2.4 9.6 2.4 9.95 0.7 11.5 0.7 11.85 2.4 13 2.4 11.2 -5.6
M 10.7 -3.3
L 10.75 -3.3 11.3 -0.4 10.15 -0.4 10.7 -3.3 Z"/>
</g>

<g id="Clade_1_0_Layer0_3_FILL">
<path fill="#FFFFFF" stroke="none" d="
M 16.55 -5.05
Q 16.05 -5.55 15.05 -5.6
L 13.35 -5.6 13.35 2.4 14.95 2.4
Q 16 2.4 16.55 1.9 17.1 1.4 17.1 0.25
L 17.1 -3.55
Q 17.1 -4.5 16.55 -5.05
M 15.75 -4.25
L 15.95 -3.55 15.95 0.35 15.75 1.1
Q 15.55 1.35 15.05 1.35
L 14.5 1.35 14.5 -4.5 15.05 -4.5
Q 15.6 -4.5 15.75 -4.25 Z"/>
</g>

<g id="Clade_1_0_Layer0_4_FILL">
<path fill="#FFFFFF" stroke="none" d="
M 21.15 -1.1
L 21.15 -2.15 19.15 -2.15 19.15 -4.5 21.45 -4.5 21.45 -5.6 18 -5.6 18 2.4 21.45 2.4 21.45 1.25 19.15 1.25 19.15 -1.1 21.15 -1.1 Z"/>
</g>
</defs>

<g transform="matrix( 0.9995880126953125, -0.0268707275390625, 0.0268707275390625, 0.9995880126953125, 192.3,65.8) ">
<g transform="matrix( 1, 0, 0, 1, -13.85,1.6) ">
<g transform="matrix( 1, 0, 0, 1, 0,0) ">
<use xlink:href="#Clade_2_0_Layer7_0_FILL"/>
</g>

<g transform="matrix( 1, 0, 0, 1, 0,0) ">
<use xlink:href="#Clade_2_0_Layer6_0_FILL"/>
</g>

<g transform="matrix( 1, 0, 0, 1, 0,0) ">
<use xlink:href="#Clade_2_0_Layer5_0_FILL"/>
</g>

<g transform="matrix( 1, 0, 0, 1, 0,0) ">
<use xlink:href="#Clade_2_0_Layer4_0_FILL"/>
</g>

<g transform="matrix( 1, 0, 0, 1, 0,0) ">
<use xlink:href="#Clade_2_0_Layer3_0_FILL"/>
</g>

<g transform="matrix( 1, 0, 0, 1, 0,0) ">
<use xlink:href="#Clade_2_0_Layer2_0_FILL"/>
</g>
</g>
</g>

<g transform="matrix( 0.999053955078125, -0.00677490234375, 0.00677490234375, 0.99908447265625, 22.15,80.35) ">
<g transform="matrix( 1, 0, 0, 1, -13.85,1.6) ">
<g transform="matrix( 1, 0, 0, 1, 0,0) ">
<use xlink:href="#Clade_2_0_Layer7_0_FILL"/>
</g>

<g transform="matrix( 1, 0, 0, 1, 0,0) ">
<use xlink:href="#Clade_2_0_Layer6_0_FILL"/>
</g>

<g transform="matrix( 1, 0, 0, 1, 0,0) ">
<use xlink:href="#Clade_2_0_Layer5_0_FILL"/>
</g>

<g transform="matrix( 1, 0, 0, 1, 0,0) ">
<use xlink:href="#Clade_2_0_Layer4_0_FILL"/>
</g>

<g transform="matrix( 1, 0, 0, 1, 0,0) ">
<use xlink:href="#Clade_2_0_Layer3_0_FILL"/>
</g>

<g transform="matrix( 1, 0, 0, 1, 0,0) ">
<use xlink:href="#Clade_2_0_Layer2_0_FILL"/>
</g>
</g>
</g>

<g transform="matrix( 0.9830780029296875, -0.1468963623046875, 0.1468963623046875, 0.9830780029296875, 175.85,144.2) ">
<g transform="matrix( 1, 0, 0, 1, -13.85,1.6) ">
<g transform="matrix( 1, 0, 0, 1, 0,0) ">
<use xlink:href="#Clade_2_0_Layer7_0_FILL"/>
</g>

<g transform="matrix( 1, 0, 0, 1, 0,0) ">
<use xlink:href="#Clade_2_0_Layer6_0_FILL"/>
</g>

<g transform="matrix( 1, 0, 0, 1, 0,0) ">
<use xlink:href="#Clade_2_0_Layer5_0_FILL"/>
</g>

<g transform="matrix( 1, 0, 0, 1, 0,0) ">
<use xlink:href="#Clade_2_0_Layer4_0_FILL"/>
</g>

<g transform="matrix( 1, 0, 0, 1, 0,0) ">
<use xlink:href="#Clade_2_0_Layer3_0_FILL"/>
</g>

<g transform="matrix( 1, 0, 0, 1, 0,0) ">
<use xlink:href="#Clade_2_0_Layer2_0_FILL"/>
</g>
</g>
</g>

<g transform="matrix( 0.817596435546875, 0.5757598876953125, -0.5757598876953125, 0.817596435546875, 165.2,120.8) ">
<g transform="matrix( 1, 0, 0, 1, 0,0) ">
<use xlink:href="#Clade_2_0_Layer7_0_FILL"/>
</g>

<g transform="matrix( 1, 0, 0, 1, 0,0) ">
<use xlink:href="#Clade_2_0_Layer6_0_FILL"/>
</g>

<g transform="matrix( 1, 0, 0, 1, 0,0) ">
<use xlink:href="#Clade_2_0_Layer5_0_FILL"/>
</g>

<g transform="matrix( 1, 0, 0, 1, 0,0) ">
<use xlink:href="#Clade_2_0_Layer4_0_FILL"/>
</g>

<g transform="matrix( 1, 0, 0, 1, 0,0) ">
<use xlink:href="#Clade_2_0_Layer3_0_FILL"/>
</g>

<g transform="matrix( 1, 0, 0, 1, 0,0) ">
<use xlink:href="#Clade_2_0_Layer2_0_FILL"/>
</g>
</g>

<g transform="matrix( 0.9999847412109375, 0, 0, 0.9999847412109375, 195.15,105.2) ">
<g transform="matrix( 1, 0, 0, 1, 24,-1.6) ">
<g transform="matrix( 1, 0, 0, 1, 0,0) ">
<use xlink:href="#Letter1_0_Layer0_0_FILL"/>
</g>
</g>

<g transform="matrix( 1, 0, 0, 1, 0,0) ">
<use xlink:href="#Clade_1_0_Layer0_0_FILL"/>
</g>

<g transform="matrix( 1, 0, 0, 1, 0,0) ">
<use xlink:href="#Clade_1_0_Layer0_1_FILL"/>
</g>

<g transform="matrix( 1, 0, 0, 1, 0,0) ">
<use xlink:href="#Clade_1_0_Layer0_2_FILL"/>
</g>

<g transform="matrix( 1, 0, 0, 1, 0,0) ">
<use xlink:href="#Clade_1_0_Layer0_3_FILL"/>
</g>

<g transform="matrix( 1, 0, 0, 1, 0,0) ">
<use xlink:href="#Clade_1_0_Layer0_4_FILL"/>
</g>
</g>

<g transform="matrix( 0.9900665283203125, -0.1367950439453125, 0.136474609375, 0.98773193359375, 169.35,168.5) ">
<g transform="matrix( 1, 0, 0, 1, 24,-1.6) ">
<g transform="matrix( 1, 0, 0, 1, 0,0) ">
<use xlink:href="#Letter1_0_Layer0_0_FILL"/>
</g>
</g>

<g transform="matrix( 1, 0, 0, 1, 0,0) ">
<use xlink:href="#Clade_1_0_Layer0_0_FILL"/>
</g>

<g transform="matrix( 1, 0, 0, 1, 0,0) ">
<use xlink:href="#Clade_1_0_Layer0_1_FILL"/>
</g>

<g transform="matrix( 1, 0, 0, 1, 0,0) ">
<use xlink:href="#Clade_1_0_Layer0_2_FILL"/>
</g>

<g transform="matrix( 1, 0, 0, 1, 0,0) ">
<use xlink:href="#Clade_1_0_Layer0_3_FILL"/>
</g>

<g transform="matrix( 1, 0, 0, 1, 0,0) ">
<use xlink:href="#Clade_1_0_Layer0_4_FILL"/>
</g>
</g>

<g transform="matrix( 0.773895263671875, 0.633270263671875, -0.633270263671875, 0.773895263671875, 138.75,147.6) ">
<g transform="matrix( 1, 0, 0, 1, 24,-1.6) ">
<g transform="matrix( 1, 0, 0, 1, 0,0) ">
<use xlink:href="#Letter1_0_Layer0_0_FILL"/>
</g>
</g>

<g transform="matrix( 1, 0, 0, 1, 0,0) ">
<use xlink:href="#Clade_1_0_Layer0_0_FILL"/>
</g>

<g transform="matrix( 1, 0, 0, 1, 0,0) ">
<use xlink:href="#Clade_1_0_Layer0_1_FILL"/>
</g>

<g transform="matrix( 1, 0, 0, 1, 0,0) ">
<use xlink:href="#Clade_1_0_Layer0_2_FILL"/>
</g>

<g transform="matrix( 1, 0, 0, 1, 0,0) ">
<use xlink:href="#Clade_1_0_Layer0_3_FILL"/>
</g>

<g transform="matrix( 1, 0, 0, 1, 0,0) ">
<use xlink:href="#Clade_1_0_Layer0_4_FILL"/>
</g>
</g>

<g transform="matrix( 0.999053955078125, -0.00677490234375, 0.00677490234375, 0.99908447265625, 22,80.5) ">
<g transform="matrix( 1, 0, 0, 1, -13.85,1.6) ">
<g transform="matrix( 1, 0, 0, 1, 0,0) ">
<use xlink:href="#Clade_2_0_Layer7_0_FILL"/>
</g>

<g transform="matrix( 1, 0, 0, 1, 0,0) ">
<use xlink:href="#Clade_2_0_Layer6_0_FILL"/>
</g>

<g transform="matrix( 1, 0, 0, 1, 0,0) ">
<use xlink:href="#Clade_2_0_Layer5_0_FILL"/>
</g>

<g transform="matrix( 1, 0, 0, 1, 0,0) ">
<use xlink:href="#Clade_2_0_Layer4_0_FILL"/>
</g>

<g transform="matrix( 1, 0, 0, 1, 0,0) ">
<use xlink:href="#Clade_2_0_Layer3_0_FILL"/>
</g>

<g transform="matrix( 1, 0, 0, 1, 0,0) ">
<use xlink:href="#Clade_2_0_Layer2_0_FILL"/>
</g>
</g>
</g>
</svg>
