
<svg xmlns="http://www.w3.org/2000/svg" version="1.1" xmlns:xlink="http://www.w3.org/1999/xlink" preserveAspectRatio="none" x="0px" y="0px" width="338px" height="219px" viewBox="0 0 338 219">
<defs>
<g id="Logo_0_Layer0_0_FILL">
<path fill="#EE9828" stroke="none" d="
M 162.05 203.15
Q 163.5 201.8 164.25 201.8 165.5 201.8 165.5 203.45
L 165.5 214.25 168.9 214.25 168.9 203.05
Q 168.9 199.3 165.75 199.3 164 199.3 162.05 201.25
L 162.05 194.75 158.65 194.75 158.65 214.25 162.05 214.25 162.05 203.15
M 182.65 208.95
L 182.65 204.85
Q 182.65 199.3 177.25 199.3 171.85 199.3 171.85 204.85
L 171.85 208.95
Q 171.85 214.5 177.25 214.5 182.65 214.5 182.65 208.95
M 179.25 204
L 179.25 209.8
Q 179.25 211.55 177.25 211.55 175.25 211.55 175.25 209.8
L 175.25 204
Q 175.25 202.25 177.25 202.25 179.25 202.25 179.25 204
M 192.5 202.95
L 192.5 199.3
Q 190.2 199.3 189 201.5
L 188.95 201.5 188.95 199.55 185.65 199.55 185.65 214.25 189.05 214.25 189.05 204.2
Q 189.05 203.55 189.45 203.1 189.9 202.6 190.7 202.6 191.2 202.6 192.5 202.95
M 198.1 202.05
Q 199.7 202.05 200.45 204.05
L 203.25 202.95
Q 201.85 199.3 198.1 199.3 196.15 199.3 194.9 200.3 193.45 201.4 193.45 203.4 193.45 206.15 196.8 207.75 200.1 209.3 200.1 210.45 200.1 211.75 198.45 211.75 196.45 211.75 195.95 209.5
L 192.9 210.3
Q 194.05 212.85 195.55 213.8 196.65 214.5 198.45 214.5 200.65 214.5 201.95 213.35 203.35 212.15 203.35 210.05 203.35 207.6 200.05 205.95 196.7 204.25 196.7 203.35 196.7 202.8 197.1 202.4 197.5 202.05 198.1 202.05
M 216.45 207.7
L 216.45 204.3
Q 216.45 202.05 214.95 200.7 213.45 199.3 211.05 199.3 208.65 199.3 207.15 200.7 205.65 202.1 205.65 204.5
L 205.65 209.3
Q 205.65 211.7 207.15 213.1 208.65 214.5 211.05 214.5 216.2 214.5 216.45 209.7
L 213.05 209.7
Q 213.05 211.75 211.05 211.75 209.05 211.75 209.05 209.65
L 209.05 207.7 216.45 207.7
M 213.05 204.15
L 213.05 204.95 209.05 204.95 209.05 204.15
Q 209.05 202.05 211.05 202.05 213.05 202.05 213.05 204.15
M 243.6 209.65
L 243.6 207.7 250.95 207.7 250.95 204.3
Q 250.95 202.05 249.45 200.7 247.95 199.3 245.55 199.3 243.15 199.3 241.65 200.7 240.15 202.1 240.15 204.5
L 240.15 209.3
Q 240.15 211.7 241.65 213.1 243.15 214.5 245.55 214.5 250.7 214.5 250.95 209.7
L 247.55 209.7
Q 247.55 211.75 245.55 211.75 243.6 211.75 243.6 209.65
M 243.6 204.15
Q 243.6 202.05 245.55 202.05 247.55 202.05 247.55 204.15
L 247.55 204.95 243.6 204.95 243.6 204.15
M 258.1 199.3
Q 256.15 199.3 254.9 200.3 253.45 201.4 253.45 203.4 253.45 206.15 256.8 207.75 260.1 209.3 260.1 210.45 260.1 211.75 258.45 211.75 256.45 211.75 255.95 209.5
L 252.9 210.3
Q 254.05 212.85 255.55 213.8 256.65 214.5 258.45 214.5 260.65 214.5 261.95 213.35 263.35 212.15 263.35 210.05 263.35 207.6 260.05 205.95 256.7 204.25 256.7 203.35 256.7 202.8 257.1 202.4 257.5 202.05 258.05 202.05 259.75 202.05 260.4 204.05
L 263.25 202.95
Q 261.85 199.3 258.1 199.3
M 276.45 204.3
Q 276.45 202.05 274.95 200.7 273.45 199.3 271.05 199.3 268.6 199.3 267.15 200.7 265.65 202.1 265.65 204.5
L 265.65 209.3
Q 265.65 211.7 267.15 213.1 268.6 214.5 271.05 214.5 276.2 214.5 276.45 209.7
L 273.05 209.7
Q 273.05 211.75 271.05 211.75 269.05 211.75 269.05 209.65
L 269.05 207.7 276.45 207.7 276.45 204.3
M 271.05 202.05
Q 273.05 202.05 273.05 204.15
L 273.05 204.95 269.05 204.95 269.05 204.15
Q 269.05 202.05 271.05 202.05
M 284.5 202.6
Q 285 202.6 286.3 202.95
L 286.3 199.3
Q 284 199.3 282.8 201.5
L 282.75 201.5 282.75 199.55 279.45 199.55 279.45 214.25 282.85 214.25 282.85 204.2
Q 282.85 203.55 283.25 203.1 283.7 202.6 284.5 202.6
M 299.15 199.55
L 295.75 199.55 293.5 209 293.45 209 291.2 199.55 287.8 199.55 291.8 214.25 295.15 214.25 299.15 199.55
M 304.2 209.65
L 304.2 207.7 311.6 207.7 311.6 204.3
Q 311.6 202.05 310.1 200.7 308.6 199.3 306.2 199.3 303.75 199.3 302.3 200.7 300.8 202.1 300.8 204.5
L 300.8 209.3
Q 300.8 211.7 302.3 213.1 303.75 214.5 306.2 214.5 311.35 214.5 311.6 209.7
L 308.2 209.7
Q 308.2 211.75 306.2 211.75 304.2 211.75 304.2 209.65
M 306.2 202.05
Q 308.2 202.05 308.2 204.15
L 308.2 204.95 304.2 204.95 304.2 204.15
Q 304.2 202.05 306.2 202.05
M 321.05 204.05
L 323.85 202.95
Q 322.5 199.3 318.75 199.3 316.8 199.3 315.55 200.3 314.1 201.4 314.1 203.4 314.1 206.15 317.45 207.75 320.75 209.3 320.75 210.45 320.75 211.75 319.1 211.75 317.1 211.75 316.6 209.5
L 313.55 210.3
Q 314.7 212.85 316.2 213.8 317.3 214.5 319.1 214.5 321.3 214.5 322.6 213.35 324 212.15 324 210.05 324 207.6 320.7 205.95 317.35 204.25 317.35 203.35 317.35 202.8 317.75 202.4 318.15 202.05 318.7 202.05 320.4 202.05 321.05 204.05
M 37.5 199.55
L 34.1 199.55 31.85 209 31.8 209 29.6 199.55 26.15 199.55 30.15 214.25 33.5 214.25 37.5 199.55
M 44.6 199.3
Q 42.15 199.3 40.7 200.7 39.2 202.1 39.2 204.5
L 39.2 209.3
Q 39.2 211.7 40.7 213.1 42.15 214.5 44.6 214.5 49.7 214.5 50 209.7
L 46.6 209.7
Q 46.6 211.75 44.6 211.75 42.6 211.75 42.6 209.65
L 42.6 207.7 50 207.7 50 204.3
Q 50 202.05 48.5 200.7 47 199.3 44.6 199.3
M 42.6 204.15
Q 42.6 202.05 44.6 202.05 46.6 202.05 46.6 204.15
L 46.6 204.95 42.6 204.95 42.6 204.15
M 56.3 199.55
L 52.95 199.55 52.95 214.25 56.35 214.25 56.35 204.2
Q 56.35 203.55 56.75 203.1 57.25 202.6 58.05 202.6 58.45 202.6 59.85 202.95
L 59.85 199.3
Q 57.5 199.3 56.35 201.5
L 56.3 201.5 56.3 199.55
M 64.75 199.55
L 61.3 199.55 64.7 211.4
Q 65.3 213.55 65.3 214.5 65.3 215.1 64.65 215.7 63.85 216.45 62.85 216.45 62.2 216.45 61.85 216.4
L 61.85 219.35 62.95 219.4
Q 65.5 219.4 66.75 218.3 67.95 217.2 68.8 214.2
L 72.7 199.55 69.25 199.55 67.1 209.25 67.05 209.25 64.75 199.55
M 99.45 199.55
L 96.05 199.55 96.05 214.25 99.45 214.25 99.45 199.55
M 106.4 199.55
L 103.1 199.55 103.1 214.25 106.5 214.25 106.5 203.15
Q 108.05 201.8 108.75 201.8 110 201.8 110 203.45
L 110 214.25 113.4 214.25 113.4 203.05
Q 113.4 199.3 110.2 199.3 108.6 199.3 106.4 201.25
L 106.4 199.55
M 126.1 204.95
Q 126.1 204.35 125.7 202.35 126.15 202.25 126.85 202.05 126.9 202.05 127.9 202.25
L 127.9 199.3
Q 126.25 199.3 124.95 201 124.3 200.2 123.2 199.75 122.15 199.3 121.1 199.3 116.1 199.3 116.1 204.8 116.1 208.5 118.3 209.9 116.25 211.25 116.25 212.35 116.25 213.6 117.65 214.45 116.65 215.05 116.35 215.4 115.6 216.05 115.6 216.75 115.6 218 117.05 218.7 118.5 219.4 121.2 219.4 127.75 219.4 127.75 215.7 127.75 212.6 123.5 212.25 119.2 211.9 119.2 211.4 119.2 211.2 119.45 210.95 119.7 210.7 119.8 210.55 120.45 210.75 121.2 210.75 126.1 210.75 126.1 204.95
M 122.9 204.85
Q 122.9 206.75 122.45 207.4 122.1 207.95 120.95 207.95 119.3 207.95 119.3 205.2 119.3 203.5 119.7 202.8 120.15 202.05 121.1 202.05 122.9 202.05 122.9 204.85
M 124.5 216
Q 124.5 217.15 121.95 217.15 118.85 217.15 118.85 216.05 118.85 215.6 119.55 214.9
L 123.25 215.2
Q 124 215.25 124.25 215.45 124.5 215.6 124.5 216
M 142.6 202.05
Q 144.35 202.05 144.35 203.8
L 144.35 204.85
Q 140.65 206 139 207.15 136.85 208.65 136.85 211 136.85 212.7 137.8 213.65 138.65 214.5 140.25 214.5 142.6 214.5 144.3 212.8
L 144.55 214.25 147.95 214.25
Q 147.75 213.45 147.75 213.05
L 147.75 203.75
Q 147.75 199.3 142.75 199.3 140.55 199.3 139.1 200.35 137.5 201.55 137.3 203.85
L 140.7 203.85
Q 140.7 203.05 141.25 202.55 141.8 202.05 142.6 202.05
M 144.35 210.6
Q 143.1 211.95 141.8 211.95 140.25 211.95 140.25 210.45 140.25 208.5 144.35 207.05
L 144.35 210.6
M 96.05 193.95
L 96.05 197 99.45 197 99.45 193.95 96.05 193.95
M 85.5 194.75
L 82.1 194.75 82.1 214.25 85.5 214.25 85.5 203.15
Q 87.05 201.8 87.75 201.8 88.95 201.8 88.95 203.45
L 88.95 214.25 92.35 214.25 92.35 203.05
Q 92.35 201.05 91.55 200.15 90.8 199.3 89.2 199.3 87.55 199.3 85.5 201.25
L 85.5 194.75
M 116.45 147.9
Q 115.95 147.25 114.85 146.6 112.6 145.3 109.65 145.3 105.15 145.3 101.85 148.55 98.55 151.8 98.55 156.35 98.55 159.85 100.85 162 103.15 164.2 107 164.2 109.8 164.2 112.35 162.85 113.65 162.2 114.35 161.5
L 113.4 158.8 111.65 160
Q 109.45 161.2 107.35 161.2 104.95 161.2 103.5 159.8 102.05 158.35 102.05 156.1 102.05 152.9 104.4 150.55 106.75 148.3 109.85 148.3 111.75 148.3 113.35 149.25 114.15 149.7 114.55 150.15
L 116.45 147.9
M 159.2 146.6
Q 157 145.3 154.05 145.3 149.55 145.3 146.25 148.55 142.9 151.8 142.9 156.35 142.9 159.85 145.2 162 147.55 164.2 151.4 164.2 154.15 164.2 156.75 162.85 158 162.2 158.75 161.5
L 157.8 158.8
Q 157.1 159.4 156 160 153.8 161.2 151.7 161.2 149.3 161.2 147.9 159.8 146.45 158.35 146.45 156.1 146.45 152.9 148.8 150.55 151.1 148.3 154.2 148.3 156.1 148.3 157.7 149.25 158.5 149.7 158.9 150.15
L 160.85 147.9
Q 160.35 147.25 159.2 146.6
M 77.9 196.2
L 74.5 196.2 74.5 200.2 73.15 200.2 73.15 202.95 74.5 202.95 74.5 211.6
Q 74.5 214.5 78.15 214.5 79.45 214.5 80.1 214.35
L 80.1 211.5 79.45 211.55
Q 77.9 211.55 77.9 210.45
L 77.9 202.95 80.1 202.95 80.1 200.2 77.9 200.2 77.9 196.2
M 24.9 194.75
L 14.7 194.75 14.7 214.25 25.15 214.25 25.15 210.95 18.4 210.95 18.4 205.8 23.35 205.8 23.35 202.5 18.4 202.5 18.4 198.05 24.9 198.05 24.9 194.75
M 16.45 145.75
L 13.05 145.75 16.25 163.75 20.05 163.75 30.25 145.75 26.55 145.75 19.8 158
Q 19.25 159 18.65 160.45
L 18.6 160.45 18.4 158 16.45 145.75
M 59.5 146.25
L 57.5 147.2 58.45 149.95 60.1 149.1
Q 62.1 148.25 63.8 148.25 67.05 148.25 67.05 151.05 67.05 151.8 66.9 152.5
L 66.05 152.5
Q 61.35 152.5 58.2 153.9 54 155.75 54 159.65 54 161.75 55.65 163 57.15 164.2 59.4 164.2 61.95 164.2 64.1 162.35 65.7 160.5 65.65 160.5
L 65.75 160.5
Q 65.6 160.5 65.35 161.95
L 65 163.75 68.2 163.75 70.35 152.65
Q 70.6 151.5 70.6 150.65 70.6 147.9 68.75 146.5 67.1 145.3 64.3 145.3 61.95 145.3 59.5 146.25
M 66.35 155.7
Q 65.85 157.9 64.25 159.55 62.45 161.4 60.45 161.4 59.05 161.4 58.25 160.7 57.55 160.05 57.55 159.05 57.55 155.1 65.6 155.1
L 66.5 155.1 66.35 155.7
M 1.7 79.6
Q 0.85 80.45 0.75 81.6
L 14.05 124.8
Q 14.4 126.15 15.25 126.85 16.1 127.45 17.65 127.65
L 21.95 127.65
Q 23 127.65 24.35 127.2 25.7 126.75 26.55 126.1
L 64.8 80.3
Q 65.65 79.65 65.55 79.2 65.45 78.75 64.4 78.75
L 55.4 78.75
Q 54.4 78.75 53.05 79.2 51.65 79.65 50.8 80.3
L 23.6 113.85
Q 22.75 114.45 22.1 114 21.45 113.6 21.2 112.45
L 11.95 81.6
Q 11.5 80.2 11.05 79.65 10.6 79.05 9.7 78.75
L 3.55 78.75
Q 2.5 78.75 1.7 79.6
M 108.7 79.55
Q 108.15 78.75 107.15 78.75
L 72.15 78.75
Q 71.1 78.75 70.15 79.55 69.2 80.35 68.9 81.5
L 57.15 124.9
Q 56.85 126.05 57.35 126.85 57.85 127.65 58.9 127.65
L 93.9 127.65
Q 94.95 127.65 95.9 126.85 96.85 126.05 97.15 124.9
L 97.5 123.55
Q 97.8 122.45 97.3 121.6 96.75 120.8 95.75 120.8
L 72.15 120.8
Q 71.1 120.8 70.6 120 70.1 119.15 70.4 118
L 72.85 109.1
Q 73.15 107.95 74.1 107.1 75.1 106.3 76.1 106.3
L 99.3 106.3
Q 100.35 106.3 101.3 105.5 102.25 104.7 102.55 103.55
L 102.9 102.25
Q 103.2 101.15 102.7 100.3 102.15 99.5 101.15 99.5
L 77.95 99.5
Q 76.9 99.5 76.4 98.7 75.85 97.85 76.2 96.7
L 78.45 88.4
Q 78.75 87.25 79.7 86.4 80.7 85.6 81.7 85.6
L 105.3 85.6
Q 106.35 85.6 107.3 84.8 108.25 84 108.55 82.85
L 108.9 81.5
Q 109.2 80.4 108.7 79.55
M 116 2.65
Q 118.4 0.9 114.7 0.9
L 39.05 0.9
Q 35.5 0.9 38.5 1.8 49.85 5.55 58.45 13.9 67.05 22.25 71.15 33.45 71.85 34.95 73.25 34.45 73.5556640625 34.332421875 73.7 34.25 71.5478515625 36.0498046875 116 2.65
M 283.1 147.2
Q 281.3 145.3 277.95 145.3 273.5 145.3 270.45 148.65 267.45 151.9 267.45 156.5 267.45 159.95 269.75 162.05 272.1 164.2 276 164.2 278.4 164.2 280.85 163.05 282.1 162.45 282.85 161.85
L 281.85 159.1
Q 281.2 159.65 280.15 160.15 278.1 161.2 276.15 161.2 273.7 161.2 272.3 159.75 271 158.45 271 156.3
L 271.1 155.25 284.25 155.25
Q 284.8 153.45 284.8 151.95 284.8 148.95 283.1 147.2
M 281.35 151.7
L 281.3 152.65 271.7 152.65
Q 272.5 150.55 274.2 149.3 275.9 148.05 277.9 148.05 279.45 148.05 280.4 148.95 281.35 149.9 281.35 151.7
M 237.2 194.75
L 233.8 194.75 233.8 200.9
Q 231.65 199.3 230.4 199.3 226.65 199.3 226.65 205.1
L 226.65 208.7
Q 226.65 214.5 230.4 214.5 231.45 214.5 232.55 213.8 233.5 213.2 234 212.45
L 234.05 212.45 234.05 214.25 237.2 214.25 237.2 194.75
M 230.1 205.35
Q 230.1 201.8 231.75 201.8 232.85 201.8 233.8 202.85
L 233.8 210.9
Q 232.9 211.95 231.75 211.95 230.1 211.95 230.1 208.45
L 230.1 205.35
M 193.95 145.75
L 190.5 145.75 187 163.75 190.45 163.75 193.95 145.75
M 195.4 138.6
L 191.8 138.6 191.15 142.15 194.65 142.15 195.4 138.6
M 227.65 145.75
L 224.25 145.75 220.8 163.75 224.25 163.75 225.8 155.55
Q 226.4 152.65 228.45 150.6 230.65 148.5 233.3 148.5 235.95 148.5 235.95 151.1 235.95 151.85 235.7 153.1
L 233.65 163.75 237.1 163.75 239.3 152.35
Q 239.55 151 239.55 150.1 239.55 145.3 234.3 145.3 231.8 145.3 229.6 146.75 227.7 148 226.85 149.55
L 226.75 149.55
Q 227.1 148.7 227.25 147.85
L 227.65 145.75
M 172.85 79.55
Q 171.9 80.35 171.6 81.5
L 159.85 124.9
Q 159.55 126.05 160.05 126.85 160.55 127.65 161.6 127.65
L 196.6 127.65
Q 197.6 127.65 198.6 126.85 199.55 126 199.85 124.9
L 200.2 123.55
Q 200.5 122.45 200 121.6 199.45 120.8 198.45 120.8
L 174.85 120.8
Q 173.8 120.8 173.3 120 172.75 119.15 173.1 118
L 175.55 109.1
Q 175.85 107.95 176.8 107.1 177.75 106.3 178.8 106.3
L 202 106.3
Q 203.05 106.3 204 105.5 204.95 104.7 205.25 103.55
L 205.6 102.25
Q 205.9 101.15 205.4 100.3 204.85 99.5 203.85 99.5
L 180.65 99.5
Q 179.6 99.5 179.1 98.7 178.55 97.85 178.9 96.7
L 181.15 88.4
Q 181.45 87.25 182.4 86.4 183.4 85.6 184.4 85.6
L 208 85.6
Q 209 85.6 210 84.8 210.95 83.95 211.25 82.85
L 211.6 81.5
Q 211.9 80.4 211.4 79.55 210.85 78.75 209.85 78.75
L 174.85 78.75
Q 173.8 78.75 172.85 79.55
M 163.15 84.8
Q 164.1 84 164.4 82.85
L 164.75 81.5
Q 165.05 80.4 164.55 79.55 164 78.75 163 78.75
L 118.25 78.75
Q 117.2 78.75 116.25 79.55 115.3 80.35 115 81.5
L 114.65 82.85
Q 114.3 84 114.85 84.8 115.35 85.6 116.4 85.6
L 130.05 85.6
Q 131.05 85.6 131.6 86.4 132.1 87.25 131.8 88.4
L 121.9 124.9
Q 121.55 126.05 122.1 126.85 122.6 127.65 123.65 127.65
L 130.05 127.65
Q 131.05 127.65 132 126.85 132.95 126.05 133.3 124.9
L 143.2 88.4
Q 143.5 87.25 144.45 86.4 145.4 85.6 146.45 85.6
L 161.15 85.6
Q 162.2 85.6 163.15 84.8
M 234.15 2.3
Q 236.05 1.5 234.8 1.15
L 233.15 0.9 167.6 0.9
Q 164.25 0.9 161.15 2.5
L 76.55 46.55
Q 74.3 47.9 74.3 49.85
L 74.35 51.4
Q 74.35 57.9 72.2 66.1 71 70.7 76.05 68.35 77.7 67.6 234.15 2.3
M 259.65 81.6
Q 257.6 80.5 249.65 79.6
L 242.15 78.9
Q 240.05 78.75 237.15 78.75
L 221.95 78.75
Q 220.9 78.75 219.95 79.55 219 80.35 218.7 81.5
L 206.95 124.9
Q 206.65 126.05 207.15 126.85 207.7 127.65 208.7 127.65
L 215.1 127.65
Q 216.1 127.65 217.1 126.85 218.05 126 218.35 124.9
L 222.5 109.65
Q 223.8056640625 109.635546875 226.2 109.6 232.2 109.5 235.85 109.55
L 244.25 125.3
Q 244.85 126.25 246 126.95 247.2 127.65 248.2 127.65
L 255.3 127.65
Q 256.3 127.65 256.6 126.95 256.9 126.3 256.3 125.35
L 246.65 109.2
Q 250.85 108.7 253.2 107.75 255.4 106.8 258.95 104.15 264 100.2 265.55 94.8 266.65 90.65 265.1 87.1 263.5 83.55 259.65 81.6
M 254 90.7
Q 255 92.9 254.3 95.45 253.35 99.1 249.25 100.5 247.25 101.2 243.65 101.35 238.95 101.65 231.05 101.5
L 224.75 101.3 228.25 88.4
Q 228.55 87.25 229.5 86.4 230.5 85.6 231.5 85.6
L 238.75 85.6
Q 243.05 85.6 245.5 85.9 248.55 86.25 250.45 87.2 252.95 88.45 254 90.7
M 326.05 147.3
Q 325.6 146.8 324.6 146.3 322.65 145.3 320.2 145.3 317.45 145.3 315.45 146.75 313.3 148.35 313.3 150.85 313.3 153.8 317.25 155.65 321.2 157.55 321.2 158.6 321.2 159.85 320 160.6 318.95 161.25 317.55 161.25 315.55 161.25 313.85 160.3
L 312.55 159.3 310.65 161.6 312.45 162.9
Q 314.75 164.2 317.55 164.2 320.5 164.2 322.45 162.65 324.5 161.05 324.5 158.6 324.5 155.65 320.55 153.8 316.55 151.9 316.55 150.85 316.55 149.6 317.75 148.85 318.8 148.25 320.15 148.25 321.95 148.25 323.3 149 324 149.35 324.35 149.7
L 326.05 147.3
M 326.95 126.85
Q 327.4 126.05 327.05 124.95
L 313.15 81.45
Q 312.8 80.35 311.8 79.55 310.8 78.75 309.8 78.75
L 304.45 78.75
Q 303.45 78.75 302.15 79.35 300.9 79.95 300.15 80.8
L 261.1 125.6
Q 260.4 126.45 260.6 127.05 260.8 127.65 261.85 127.65
L 269.2 127.65
Q 270.25 127.65 271.5 127.05 272.75 126.45 273.45 125.6
L 279.6 118.2
Q 280.35 117.35 281.6 116.7 282.85 116.1 283.85 116.1
L 309.4 116.1
Q 310.4 116.1 311.4 116.9 312.4 117.7 312.75 118.8
L 314.7 124.95
Q 315.1 126.1 316.05 126.85 317.05 127.65 318.1 127.65
L 325.45 127.65
Q 326.45 127.65 326.95 126.85
M 304 89.25
Q 304.7 89.4 305.05 90.55
L 309.75 107.05
Q 310.1 108.15 309.6 109 309.05 109.8 308.05 109.8
L 288.7 109.8
Q 287.65 109.8 287.4 109.2 287.2 108.55 287.9 107.7
L 302.55 89.9
Q 303.25 89.05 304 89.25
M 338.15 84.05
Q 338.15 81.4 336.3 79.5 334.45 77.65 331.8 77.65 329.15 77.65 327.25 79.5 325.4 81.4 325.4 84.05 325.4 86.8 327.25 88.65 329.15 90.55 331.8 90.55 334.45 90.55 336.3 88.65 338.15 86.8 338.15 84.05
M 335.45 80.25
Q 336.95 81.8 336.95 84.1 336.95 86.4 335.45 87.95 333.95 89.55 331.8 89.55 329.65 89.55 328.15 87.95 326.65 86.35 326.65 84.05 326.65 81.8 328.15 80.25 329.65 78.65 331.8 78.65 333.95 78.65 335.45 80.25
M 331.45 80.45
Q 330.65 80.45 329.45 80.65
L 329.45 87.8 330.6 87.8 330.6 84.75 331.4 84.75
Q 332.7 84.75 332.95 86 333.1 87.4 333.4 87.8
L 334.6 87.8
Q 334.4 87.4 334.15 86.05 333.9 84.45 332.95 84.3
L 332.95 84.25
Q 334.35 83.8 334.35 82.5 334.35 81.45 333.7 81 332.9 80.45 331.45 80.45
M 330.6 81.4
L 331.4 81.35
Q 333.15 81.35 333.15 82.6 333.15 83.85 331.4 83.85
L 330.6 83.85 330.6 81.4 Z"/>
</g>
</defs>

<g transform="matrix( 1, 0, 0, 1, 0,0) ">
<g transform="matrix( 1, 0, 0, 1, -0.75,-0.9) ">
<use xlink:href="#Logo_0_Layer0_0_FILL"/>
</g>
</g>
</svg>
